<?xml version="1.0" encoding="utf-8"?>
<!-- Generator: Adobe Illustrator 27.2.0, SVG Export Plug-In . SVG Version: 6.00 Build 0)  -->
<svg version="1.1" xmlns="http://www.w3.org/2000/svg" xmlns:xlink="http://www.w3.org/1999/xlink" x="0px" y="0px"
	 viewBox="0 0 1825.15 1005.11" style="enable-background:new 0 0 1825.15 1005.11;" xml:space="preserve">
<style type="text/css">
	.st0{display:none;}
	.st1{display:inline;fill:none;stroke:#C05C9F;}
	.st2{font-family:'Impact';}
	.st3{font-size:248px;}
	.st4{display:inline;fill:#C05C9F;}
	.st5{font-size:249px;}
	.st6{font-size:251px;}
	.st7{display:inline;fill:none;stroke:#C05C9F;stroke-miterlimit:10;}
	.st8{fill:#C05C9F;}
	.st9{fill:none;stroke:#C05C9F;stroke-miterlimit:10;}
</style>
<g id="_x31_" class="st0">
	<text transform="matrix(1 0 0 1 980.2886 308.0594)" class="st1 st2 st3 t1">STYLES</text>
	<text transform="matrix(1 0 0 1 980.2886 600.0594)" class="st4 st2 st3 t2">STYLES</text>
	<text transform="matrix(1 0 0 1 980.2886 890.0594)" class="st1 st2 st3 t3">STYLES</text>
	<text transform="matrix(1 0 0 1 599.8936 309.0594)" class="st1 st2 st5 t4">THE</text>
	<text transform="matrix(1 0 0 1 599.8936 601.0594)" class="st1 st2 st5 t5">THE</text>
	<text transform="matrix(1 0 0 1 599.8936 891.0594)" class="st4 st2 st5 t6">THE</text>
	<text transform="matrix(1 0 0 1 138.9366 311.0594)" class="st4 st2 st6 t7">LINK</text>
	<text transform="matrix(1 0 0 1 138.9366 603.0594)" class="st1 st2 st6 t8">LINK</text>
	<text transform="matrix(1 0 0 1 138.9366 893.0594)" class="st1 st2 st6 t9">LINK</text>
</g>
<g id="_x32_" class="st0">
	<text transform="matrix(1 0 0 1 980.2886 308.0594)" class="st1 st2 st3 t10">STYLES</text>
	<text transform="matrix(1 0 0 1 980.2886 600.0594)" class="st7 st2 st3 t11">STYLES</text>
	<text transform="matrix(1 0 0 1 980.2886 890.0594)" class="st4 st2 st3 t12">STYLES</text>
	<text transform="matrix(1 0 0 1 599.8936 309.0594)" class="st4 st2 st5 t13">THE</text>
	<text transform="matrix(1 0 0 1 599.8936 601.0594)" class="st1 st2 st5 t14">THE</text>
	<text transform="matrix(1 0 0 1 599.8936 891.0594)" class="st7 st2 st5 t15">THE</text>
	<text transform="matrix(1 0 0 1 138.9366 311.0594)" class="st7 st2 st6 t16">LINK</text>
	<text transform="matrix(1 0 0 1 138.9366 603.0594)" class="st4 st2 st6 t17">LINK</text>
	<text transform="matrix(1 0 0 1 138.9366 893.0594)" class="st1 st2 st6 t18">LINK</text>
</g>
<g id="_x33_">
	<text transform="matrix(1 0 0 1 980.2886 308.0594)" class="st8 st2 st3 t19">STYLES</text>
	<text transform="matrix(1 0 0 1 980.2886 600.0594)" class="st9 st2 st3 t20">STYLES</text>
	<text transform="matrix(1 0 0 1 980.2886 890.0594)" class="st9 st2 st3 t21">STYLES</text>
	<text transform="matrix(1 0 0 1 599.8936 309.0594)" class="st9 st2 st5 t22">THE</text>
	<text transform="matrix(1 0 0 1 599.8936 601.0594)" class="st8 st2 st5 t23">THE</text>
	<text transform="matrix(1 0 0 1 599.8936 891.0594)" class="st9 st2 st5 t24">THE</text>
	<text transform="matrix(1 0 0 1 138.9366 311.0594)" class="st9 st2 st6 t25">LINK</text>
	<text transform="matrix(1 0 0 1 138.9366 603.0594)" class="st9 st2 st6 t26">LINK</text>
	<text transform="matrix(1 0 0 1 138.9366 893.0594)" class="st8 st2 st6 t27">LINK</text>
</g>
</svg>
